<?xml version="1.0" encoding="UTF-8" standalone="no"?>
<svg
   viewBox="0 0 24 24"
   width="24"
   height="24"
   version="1.1"
   id="svg1"
   sodipodi:docname="cross.svg"
   inkscape:version="1.3.2 (091e20e, 2023-11-25)"
   xmlns:inkscape="http://www.inkscape.org/namespaces/inkscape"
   xmlns:sodipodi="http://sodipodi.sourceforge.net/DTD/sodipodi-0.dtd"
   xmlns="http://www.w3.org/2000/svg"
   xmlns:svg="http://www.w3.org/2000/svg">
  <defs
     id="defs1" />
  <sodipodi:namedview
     id="namedview1"
     pagecolor="#ffffff"
     bordercolor="#000000"
     borderopacity="0.25"
     inkscape:showpageshadow="2"
     inkscape:pageopacity="0.0"
     inkscape:pagecheckerboard="0"
     inkscape:deskcolor="#d1d1d1"
     inkscape:zoom="9.8333333"
     inkscape:cx="12"
     inkscape:cy="12"
     inkscape:window-width="1440"
     inkscape:window-height="449"
     inkscape:window-x="0"
     inkscape:window-y="25"
     inkscape:window-maximized="0"
     inkscape:current-layer="svg1" />
  <path
     d="M5.72 5.72a.75.75 0 0 1 1.06 0L12 10.94l5.22-5.22a.749.749 0 0 1 1.275.326.749.749 0 0 1-.215.734L13.06 12l5.22 5.22a.749.749 0 0 1-.326 1.275.749.749 0 0 1-.734-.215L12 13.06l-5.22 5.22a.751.751 0 0 1-1.042-.018.751.751 0 0 1-.018-1.042L10.94 12 5.72 6.78a.75.75 0 0 1 0-1.06Z"
     id="path1"
     style="fill:#ffffff;fill-opacity:1" />
</svg>
